<svg width="250" height="33" viewBox="0 0 250 33" fill="none" xmlns="http://www.w3.org/2000/svg">
<path d="M225.504 32.16H216.48V0H235.248C238.096 0 240.48 0.384 242.4 1.152C244.32 1.92 245.76 3.04 246.72 4.512C247.712 5.952 248.208 7.728 248.208 9.84C248.208 11.536 247.904 13.008 247.296 14.256C246.72 15.472 245.792 16.464 244.512 17.232C243.232 17.968 241.568 18.464 239.52 18.72V19.2C241.184 19.616 242.368 20.24 243.072 21.072C243.808 21.872 244.48 22.88 245.088 24.096L249.072 32.16H238.656L234.816 24.288C234.432 23.488 234.032 22.864 233.616 22.416C233.2 21.968 232.656 21.664 231.984 21.504C231.312 21.312 230.384 21.216 229.2 21.216H225.504V32.16ZM225.504 8.112V14.496H235.152C236.464 14.496 237.392 14.304 237.936 13.92C238.48 13.536 238.752 12.656 238.752 11.28C238.752 10 238.48 9.152 237.936 8.736C237.392 8.32 236.464 8.112 235.152 8.112H225.504Z" fill="#030712"/>
<path d="M123.017 32.16H109.001V24.048H123.017C124.937 24.048 126.457 23.888 127.577 23.568C128.697 23.248 129.497 22.528 129.977 21.408C130.457 20.256 130.697 18.48 130.697 16.08C130.697 13.648 130.457 11.872 129.977 10.752C129.497 9.632 128.697 8.912 127.577 8.592C126.457 8.272 124.937 8.112 123.017 8.112H109.001V0H123.017C126.569 0 129.641 0.639999 132.233 1.92C134.825 3.168 136.825 4.992 138.233 7.392C139.641 9.792 140.345 12.688 140.345 16.08C140.345 19.472 139.641 22.368 138.233 24.768C136.825 27.168 134.825 29.008 132.233 30.288C129.641 31.536 126.569 32.16 123.017 32.16ZM115.769 32.16H106.745V0H115.769V32.16Z" fill="#030712"/>
<path d="M79.897 32.16H70.873V0H80.473L89.401 12.048L94.105 19.44H94.729L94.297 12.432V0H103.321V32.16H93.721L84.217 19.776L80.137 13.44H79.513L79.897 19.584V32.16Z" fill="#030712"/>
<path d="M48.772 32.16H39.748V0H48.772V32.16ZM68.308 32.16H42.196V24.048H68.308V32.16ZM67.588 20.016H42.196V11.952H67.588V20.016ZM68.308 8.112H42.196V0H68.308V8.112Z" fill="#030712"/>
<path d="M25.872 32.16H12.912L0 0H10.896L19.2 23.04H19.824L27.936 0H38.784L25.872 32.16Z" fill="#030712"/>
<path d="M191.98 0.160034H213.98L194.98 32.16H172.98L191.98 0.160034Z" fill="#1D4ED8"/>
<path d="M171.98 0.160034H187.98L168.98 32.16H152.98L171.98 0.160034Z" fill="#3B82F6"/>
<path d="M155.98 0.160034H167.98L148.98 32.16H136.98L155.98 0.160034Z" fill="#93C5FD"/>
</svg>
